<svg xmlns:xlink="http://www.w3.org/1999/xlink" width="7.069ex" height="2.009ex" style="font-size: 15px; vertical-align: -0.671ex; margin-left: -0.052ex;" viewBox="-22.5 -576.1 3043.8 865.1" role="img" focusable="false" xmlns="http://www.w3.org/2000/svg">
<defs>
<path stroke-width="1" id="E1-MJMATHBI-70" d="M24 296Q25 302 27 312T41 350T65 397T103 435T157 452Q235 452 273 404Q336 452 409 452Q434 452 458 448T507 432T550 402T581 354T593 285Q593 221 564 159T480 53Q401 -8 302 -8Q290 -8 279 -7T259 -3T242 3T228 9T218 14T212 18L209 20Q208 19 190 -55T171 -131T198 -132H213Q240 -132 240 -150Q237 -187 223 -192Q219 -194 212 -194Q208 -194 176 -193T95 -192Q48 -192 24 -193T-3 -194Q-11 -194 -16 -190T-22 -182T-23 -176Q-20 -142 -7 -134Q-3 -132 20 -132H44L164 354Q165 357 165 372Q165 401 148 401Q113 401 90 310Q85 289 82 286T60 282H55H44Q24 282 24 296ZM465 339Q465 373 447 387T403 401Q375 401 347 387T303 360T288 341Q288 338 257 216L227 93Q248 43 306 43Q332 43 361 59T410 115Q425 147 445 224Q465 309 465 339Z"></path>
<path stroke-width="1" id="E1-MJMATHI-4B" d="M285 628Q285 635 228 637Q205 637 198 638T191 647Q191 649 193 661Q199 681 203 682Q205 683 214 683H219Q260 681 355 681Q389 681 418 681T463 682T483 682Q500 682 500 674Q500 669 497 660Q496 658 496 654T495 648T493 644T490 641T486 639T479 638T470 637T456 637Q416 636 405 634T387 623L306 305Q307 305 490 449T678 597Q692 611 692 620Q692 635 667 637Q651 637 651 648Q651 650 654 662T659 677Q662 682 676 682Q680 682 711 681T791 680Q814 680 839 681T869 682Q889 682 889 672Q889 650 881 642Q878 637 862 637Q787 632 726 586Q710 576 656 534T556 455L509 418L518 396Q527 374 546 329T581 244Q656 67 661 61Q663 59 666 57Q680 47 717 46H738Q744 38 744 37T741 19Q737 6 731 0H720Q680 3 625 3Q503 3 488 0H478Q472 6 472 9T474 27Q478 40 480 43T491 46H494Q544 46 544 71Q544 75 517 141T485 216L427 354L359 301L291 248L268 155Q245 63 245 58Q245 51 253 49T303 46H334Q340 37 340 35Q340 19 333 5Q328 0 317 0Q314 0 280 1T180 2Q118 2 85 2T49 1Q31 1 31 11Q31 13 34 25Q38 41 42 43T65 46Q92 46 125 49Q139 52 144 61Q147 65 216 339T285 628Z"></path>
<path stroke-width="1" id="E1-MJMAIN-2C" d="M78 35T78 60T94 103T137 121Q165 121 187 96T210 8Q210 -27 201 -60T180 -117T154 -158T130 -185T117 -194Q113 -194 104 -185T95 -172Q95 -168 106 -156T131 -126T157 -76T173 -3V9L172 8Q170 7 167 6T161 3T152 1T140 0Q113 0 96 17Z"></path>
<path stroke-width="1" id="E1-MJMATHI-56" d="M52 648Q52 670 65 683H76Q118 680 181 680Q299 680 320 683H330Q336 677 336 674T334 656Q329 641 325 637H304Q282 635 274 635Q245 630 242 620Q242 618 271 369T301 118L374 235Q447 352 520 471T595 594Q599 601 599 609Q599 633 555 637Q537 637 537 648Q537 649 539 661Q542 675 545 679T558 683Q560 683 570 683T604 682T668 681Q737 681 755 683H762Q769 676 769 672Q769 655 760 640Q757 637 743 637Q730 636 719 635T698 630T682 623T670 615T660 608T652 599T645 592L452 282Q272 -9 266 -16Q263 -18 259 -21L241 -22H234Q216 -22 216 -15Q213 -9 177 305Q139 623 138 626Q133 637 76 637H59Q52 642 52 648Z"></path>
</defs>
<g stroke="currentColor" fill="currentColor" stroke-width="0" transform="matrix(1 0 0 -1 0 0)">
 <use xlink:href="#E1-MJMATHBI-70" x="0" y="0"></use>
 <use transform="scale(0.707)" xlink:href="#E1-MJMATHI-4B" x="850" y="-213"></use>
 <use xlink:href="#E1-MJMAIN-2C" x="1330" y="0"></use>
<g transform="translate(1775,0)">
 <use xlink:href="#E1-MJMATHBI-70" x="0" y="0"></use>
 <use transform="scale(0.707)" xlink:href="#E1-MJMATHI-56" x="850" y="-213"></use>
</g>
</g>
</svg>